<?xml version="1.0" encoding="utf-8"?>
<!-- Generator: Adobe Illustrator 22.1.0, SVG Export Plug-In . SVG Version: 6.00 Build 0)  -->
<svg version="1.1" id="Capa_1" xmlns="http://www.w3.org/2000/svg" xmlns:xlink="http://www.w3.org/1999/xlink" x="0px" y="0px"
	 viewBox="0 0 300 92.7" style="enable-background:new 0 0 300 92.7;" xml:space="preserve">
<style type="text/css">
	.st0{fill:#FFE678;}
</style>
<path class="st0" d="M139,88.6c0,0,0.2-5.9,4.2-6.1c4-0.2,7.2-1.3,7.6-2.5c0.4-1.3,2.5-2.3,6.3-1.5c0,0,3.2-4.7,10.1-1.5
	c0,0-1.7-6.3,7.2-7.8s15.2,0.4,14.2,5.1c0,0,7.4-4,10.4,0c0,0-0.8-8,4-7.8c0,0,0.8-4.4,4.2-5.3c0,0-11.4-4.9,1.3-18.8
	c12.7-14,33-6.3,43.3,2.3c0,0,1.1-2.7,3.2-1.1c0,0,1.5-5.7,9.7,0c0,0,2.1-2.1,3.6-2.1c1.5,0,0.4-3.2,1.7-3.2s-1.7-2.3,1.7-3.7
	c0,0-12-17,4-23.8c16.1-6.8,24.1,0,24.1,0l2.7,4l0,73.8v8.9L120.4,93l-15.6-3.4c0,0,12.3-1.9,16.1-1.9c3.8,0,7.6,1.5,10.8,1.7
	S139,88.6,139,88.6z"/>
<path class="st0" d="M-0.8,2.4c0,0,12.2,7,13.8,17.1c0,0,3,0.7,4.6,2.9c1.6,2.2,5.7,1.8,5.7,1.8s14.1-18.8,35.3-7.9
	c0,0,16.6,3.6,8.4,17.1c0,0,2.9,3.9,2.3,6.9c0,0,15.7,0,15.1,4.1c0,0,20.9-12.5,32.3,1.2c0,0,13.3,2.4,7.9,12c0,0,20.4-1.4,20.6,7.8
	c0,0,10.3,1.2,11.1,7.7c0.8,6.5,9.2,3.6,10.9,7.5c1.6,3.9,7.1-4.4,13.3,0.5c6.2,4.8,10,0.6,13.8,4.3c3.8,3.7,14.1,6.8,16,7.4
	c1.9,0.6-32.6,2.3-44.2,2.2c-11.7-0.2-110.2,2-120.5,1.9s-46.4,2.7-46.4,2.7V2.4z"/>
</svg>
